<svg width="62" height="62" viewBox="0 0 62 62" fill="none" xmlns="http://www.w3.org/2000/svg">
<path fill-rule="evenodd" clip-rule="evenodd" d="M31 0C13.8792 0 0 13.8792 0 31C0 48.1208 13.8792 62 31 62C48.1208 62 62 48.1208 62 31C62 13.8792 48.1208 0 31 0ZM24.1842 14.5666C25.9478 14.4863 26.5113 14.4667 31.0015 14.4667H30.9964C35.488 14.4667 36.0494 14.4863 37.813 14.5666C39.5731 14.6472 40.7753 14.9258 41.8293 15.3347C42.9177 15.7566 43.8374 16.3215 44.7571 17.2412C45.6768 18.1602 46.2417 19.0826 46.6653 20.17C47.0718 21.2213 47.3508 22.4227 47.4334 24.1829C47.5127 25.9464 47.5333 26.5099 47.5333 31.0002C47.5333 35.4904 47.5127 36.0525 47.4334 37.8161C47.3508 39.5756 47.0718 40.7773 46.6653 41.8289C46.2417 42.916 45.6768 43.8384 44.7571 44.7574C43.8384 45.6771 42.9174 46.2434 41.8303 46.6657C40.7784 47.0745 39.5756 47.3532 37.8154 47.4338C36.0518 47.514 35.4901 47.5337 30.9995 47.5337C26.5096 47.5337 25.9464 47.514 24.1829 47.4338C22.4231 47.3532 21.2213 47.0745 20.1693 46.6657C19.0826 46.2434 18.1602 45.6771 17.2415 44.7574C16.3222 43.8384 15.7573 42.916 15.3347 41.8286C14.9262 40.7773 14.6475 39.5759 14.5666 37.8158C14.4866 36.0522 14.4667 35.4904 14.4667 31.0002C14.4667 26.5099 14.4873 25.9461 14.5662 24.1825C14.6454 22.4231 14.9244 21.2213 15.3343 20.1697C15.758 19.0826 16.3229 18.1602 17.2426 17.2412C18.1616 16.3219 19.084 15.757 20.1714 15.3347C21.2227 14.9258 22.4241 14.6472 24.1842 14.5666Z" fill="#2B2A29"/>
<path fill-rule="evenodd" clip-rule="evenodd" d="M29.5183 17.4462C29.8063 17.4457 30.1162 17.4458 30.4505 17.446L31.0015 17.4462C35.416 17.4462 35.9392 17.462 37.6825 17.5412C39.2945 17.6149 40.1694 17.8843 40.7522 18.1106C41.5237 18.4103 42.0738 18.7685 42.6521 19.3472C43.2308 19.9258 43.589 20.4769 43.8894 21.2485C44.1157 21.8306 44.3854 22.7055 44.4588 24.3175C44.538 26.0605 44.5552 26.584 44.5552 30.9964C44.5552 35.4088 44.538 35.9323 44.4588 37.6752C44.3851 39.2873 44.1157 40.1622 43.8894 40.7443C43.5897 41.5158 43.2308 42.0652 42.6521 42.6436C42.0735 43.2222 41.5241 43.5805 40.7522 43.8801C40.1701 44.1075 39.2945 44.3761 37.6825 44.4498C35.9395 44.5291 35.416 44.5463 31.0015 44.5463C26.5867 44.5463 26.0635 44.5291 24.3206 44.4498C22.7086 44.3754 21.8337 44.1061 21.2506 43.8798C20.479 43.5801 19.9279 43.2219 19.3492 42.6432C18.7705 42.0645 18.4123 41.5148 18.112 40.7429C17.8856 40.1608 17.6159 39.2859 17.5426 37.6739C17.4634 35.931 17.4475 35.4074 17.4475 30.9923C17.4475 26.5771 17.4634 26.0563 17.5426 24.3134C17.6163 22.7014 17.8856 21.8265 18.112 21.2437C18.4116 20.4721 18.7705 19.921 19.3492 19.3423C19.9279 18.7637 20.479 18.4054 21.2506 18.1051C21.8334 17.8777 22.7086 17.6091 24.3206 17.535C25.8458 17.4661 26.4369 17.4455 29.5183 17.442V17.4462ZM39.827 20.1914C38.7316 20.1914 37.843 21.079 37.843 22.1747C37.843 23.2701 38.7316 24.1588 39.827 24.1588C40.9223 24.1588 41.811 23.2701 41.811 22.1747C41.811 21.0794 40.9223 20.1907 39.827 20.1907V20.1914ZM22.5109 31.0002C22.5109 26.3112 26.3126 22.5095 31.0015 22.5095H31.0012C35.6902 22.5095 39.4908 26.3112 39.4908 31.0002C39.4908 35.6892 35.6905 39.4891 31.0015 39.4891C26.3126 39.4891 22.5109 35.6892 22.5109 31.0002Z" fill="#2B2A29"/>
<path d="M31.0016 25.489C34.0452 25.489 36.5128 27.9563 36.5128 31.0002C36.5128 34.0437 34.0452 36.5114 31.0016 36.5114C27.9578 36.5114 25.4905 34.0437 25.4905 31.0002C25.4905 27.9563 27.9578 25.489 31.0016 25.489Z" fill="#2B2A29"/>
</svg>
