<svg width="62" height="62" viewBox="0 0 62 62" fill="none" xmlns="http://www.w3.org/2000/svg">
<path fill-rule="evenodd" clip-rule="evenodd" d="M31 0C13.8792 0 0 13.8792 0 31C0 48.1208 13.8792 62 31 62C48.1208 62 62 48.1208 62 31C62 13.8792 48.1208 0 31 0ZM24.1842 14.5666C25.9478 14.4863 26.5113 14.4667 31.0015 14.4667H30.9964C35.488 14.4667 36.0494 14.4863 37.813 14.5666C39.5731 14.6472 40.7753 14.9258 41.8293 15.3347C42.9177 15.7566 43.8374 16.3215 44.7571 17.2412C45.6768 18.1602 46.2417 19.0826 46.6653 20.17C47.0718 21.2213 47.3508 22.4227 47.4334 24.1829C47.5127 25.9464 47.5333 26.5099 47.5333 31.0002C47.5333 35.4904 47.5127 36.0525 47.4334 37.8161C47.3508 39.5756 47.0718 40.7773 46.6653 41.8289C46.2417 42.916 45.6768 43.8384 44.7571 44.7574C43.8384 45.6771 42.9174 46.2434 41.8303 46.6657C40.7784 47.0745 39.5756 47.3532 37.8154 47.4338C36.0518 47.514 35.4901 47.5337 30.9995 47.5337C26.5096 47.5337 25.9464 47.514 24.1829 47.4338C22.4231 47.3532 21.2213 47.0745 20.1693 46.6657C19.0826 46.2434 18.1602 45.6771 17.2415 44.7574C16.3222 43.8384 15.7573 42.916 15.3347 41.8286C14.9262 40.7773 14.6475 39.5759 14.5666 37.8158C14.4866 36.0522 14.4667 35.4904 14.4667 31.0002C14.4667 26.5099 14.4873 25.9461 14.5662 24.1825C14.6454 22.4231 14.9244 21.2213 15.3343 20.1697C15.758 19.0826 16.3229 18.1602 17.2426 17.2412C18.1616 16.3219 19.084 15.757 20.1714 15.3347C21.2227 14.9258 22.4241 14.6472 24.1842 14.5666Z" fill="white"/>
<path fill-rule="evenodd" clip-rule="evenodd" d="M29.5186 17.446C29.8066 17.4456 30.1164 17.4457 30.4507 17.4459L31.0018 17.446C35.4162 17.446 35.9394 17.4619 37.6827 17.5411C39.2947 17.6148 40.1696 17.8842 40.7524 18.1105C41.524 18.4101 42.0741 18.7684 42.6524 19.347C43.2311 19.9257 43.5893 20.4768 43.8897 21.2484C44.116 21.8305 44.3857 22.7054 44.459 24.3174C44.5382 26.0603 44.5555 26.5839 44.5555 30.9963C44.5555 35.4086 44.5382 35.9322 44.459 37.6751C44.3853 39.2871 44.116 40.162 43.8897 40.7441C43.59 41.5157 43.2311 42.0651 42.6524 42.6434C42.0737 43.2221 41.5243 43.5803 40.7524 43.88C40.1703 44.1073 39.2947 44.376 37.6827 44.4497C35.9398 44.5289 35.4162 44.5462 31.0018 44.5462C26.587 44.5462 26.0638 44.5289 24.3209 44.4497C22.7089 44.3753 21.834 44.106 21.2508 43.8797C20.4792 43.58 19.9281 43.2218 19.3495 42.6431C18.7708 42.0644 18.4126 41.5147 18.1122 40.7428C17.8859 40.1607 17.6162 39.2858 17.5428 37.6737C17.4636 35.9308 17.4478 35.4073 17.4478 30.9921C17.4478 26.577 17.4636 26.0562 17.5428 24.3133C17.6165 22.7013 17.8859 21.8264 18.1122 21.2436C18.4119 20.472 18.7708 19.9209 19.3495 19.3422C19.9281 18.7635 20.4792 18.4053 21.2508 18.105C21.8336 17.8776 22.7089 17.609 24.3209 17.5349C25.8461 17.466 26.4372 17.4453 29.5186 17.4419V17.446ZM39.8272 20.1913C38.7319 20.1913 37.8432 21.0789 37.8432 22.1746C37.8432 23.27 38.7319 24.1586 39.8272 24.1586C40.9226 24.1586 41.8113 23.27 41.8113 22.1746C41.8113 21.0793 40.9226 20.1906 39.8272 20.1906V20.1913ZM22.5111 31.0001C22.5111 26.3111 26.3128 22.5094 31.0018 22.5094H31.0014C35.6904 22.5094 39.4911 26.3111 39.4911 31.0001C39.4911 35.689 35.6908 39.489 31.0018 39.489C26.3128 39.489 22.5111 35.689 22.5111 31.0001Z" fill="white"/>
<path d="M31.0014 25.4888C34.0449 25.4888 36.5126 27.9561 36.5126 30.9999C36.5126 34.0435 34.0449 36.5111 31.0014 36.5111C27.9575 36.5111 25.4902 34.0435 25.4902 30.9999C25.4902 27.9561 27.9575 25.4888 31.0014 25.4888Z" fill="white"/>
</svg>
