<svg width="62" height="62" viewBox="0 0 62 62" fill="none" xmlns="http://www.w3.org/2000/svg">
<path fill-rule="evenodd" clip-rule="evenodd" d="M0 31C0 48.1208 13.8792 62 31 62C48.1208 62 62 48.1208 62 31C62 13.8792 48.1208 0 31 0C13.8792 0 0 13.8792 0 31ZM50.4553 29.8136C50.4512 39.9748 42.1852 48.2429 32.0218 48.247H32.0142C28.9291 48.2459 25.8977 47.4719 23.2052 46.0033L13.4333 48.5667L16.0485 39.0146C14.4353 36.219 13.5865 33.0479 13.5879 29.7991C13.5919 19.6355 21.8612 11.3667 32.0216 11.3667C36.9528 11.3688 41.5811 13.2885 45.0613 16.7728C48.5416 20.257 50.4572 24.8883 50.4553 29.8136Z" fill="white"/>
<path fill-rule="evenodd" clip-rule="evenodd" d="M17.8592 44.1872L23.658 42.666L24.2175 42.9981C26.5698 44.394 29.2663 45.1326 32.0156 45.1337H32.0218C40.4664 45.1337 47.3395 38.2605 47.3429 29.8124C47.3445 25.7185 45.7523 21.8692 42.8597 18.9731C39.967 16.0771 36.1201 14.4814 32.0278 14.48C23.5767 14.48 16.7035 21.3525 16.7002 29.8C16.699 32.695 17.509 35.5144 19.0427 37.9537L19.407 38.5334L17.8592 44.1872ZM40.6777 33.7822C40.9989 33.9374 41.2159 34.0423 41.3085 34.1969C41.4236 34.3889 41.4236 35.3111 41.04 36.3872C40.656 37.463 38.816 38.445 37.9309 38.5772C37.1375 38.6958 36.1333 38.7453 35.0299 38.3947C34.361 38.1824 33.5031 37.899 32.4042 37.4244C28.0862 35.5599 25.1682 31.3749 24.6167 30.584C24.578 30.5285 24.551 30.4898 24.5359 30.4697L24.5322 30.4647C24.2885 30.1395 22.6552 27.9603 22.6552 25.705C22.6552 23.5834 23.6974 22.4714 24.1771 21.9595C24.21 21.9244 24.2402 21.8922 24.2673 21.8626C24.6894 21.4015 25.1885 21.2862 25.4955 21.2862C25.8025 21.2862 26.1099 21.289 26.3783 21.3025C26.4114 21.3042 26.4458 21.304 26.4814 21.3038C26.7498 21.3022 27.0845 21.3002 27.4146 22.0932C27.5416 22.3983 27.7274 22.8507 27.9234 23.3279C28.3197 24.2928 28.7576 25.3588 28.8347 25.5131C28.9498 25.7437 29.0266 26.0125 28.8731 26.3201C28.85 26.3662 28.8287 26.4097 28.8083 26.4513C28.693 26.6867 28.6082 26.8599 28.4125 27.0884C28.3355 27.1782 28.256 27.2751 28.1764 27.372C28.018 27.5649 27.8595 27.7579 27.7216 27.8953C27.491 28.125 27.251 28.3742 27.5196 28.8353C27.7883 29.2965 28.7127 30.8047 30.0819 32.026C31.5538 33.3389 32.8331 33.8938 33.4815 34.1751C33.6082 34.23 33.7107 34.2745 33.786 34.3121C34.2464 34.5428 34.5151 34.5042 34.7838 34.1969C35.0525 33.8895 35.9352 32.8519 36.2422 32.3909C36.5492 31.9299 36.8563 32.0067 37.2785 32.1603C37.7007 32.3142 39.9652 33.4283 40.4258 33.6589C40.5157 33.7039 40.5998 33.7445 40.6777 33.7822Z" fill="white"/>
</svg>
