<svg width="62" height="62" viewBox="0 0 62 62" fill="none" xmlns="http://www.w3.org/2000/svg">
<path fill-rule="evenodd" clip-rule="evenodd" d="M0 31C0 48.1208 13.8792 62 31 62C48.1208 62 62 48.1208 62 31C62 13.8792 48.1208 0 31 0C13.8792 0 0 13.8792 0 31ZM50.4553 29.8136C50.4512 39.9748 42.1852 48.2429 32.0218 48.247H32.0142C28.9291 48.2459 25.8977 47.4719 23.2052 46.0033L13.4333 48.5667L16.0485 39.0146C14.4353 36.219 13.5865 33.0479 13.5879 29.7991C13.5919 19.6355 21.8612 11.3667 32.0216 11.3667C36.9528 11.3688 41.5811 13.2885 45.0613 16.7728C48.5416 20.257 50.4572 24.8883 50.4553 29.8136Z" fill="#2B2A29"/>
<path fill-rule="evenodd" clip-rule="evenodd" d="M17.8592 44.1873L23.658 42.6662L24.2175 42.9982C26.5698 44.3942 29.2663 45.1328 32.0156 45.1339H32.0218C40.4664 45.1339 47.3395 38.2607 47.3429 29.8126C47.3445 25.7187 45.7523 21.8693 42.8597 18.9733C39.967 16.0773 36.1201 14.4816 32.0278 14.4802C23.5767 14.4802 16.7035 21.3527 16.7002 29.8001C16.699 32.6952 17.509 35.5145 19.0427 37.9539L19.407 38.5336L17.8592 44.1873ZM40.6777 33.7823C40.9989 33.9376 41.2159 34.0424 41.3085 34.1971C41.4236 34.3891 41.4236 35.3113 41.04 36.3874C40.656 37.4632 38.816 38.4452 37.9309 38.5774C37.1375 38.696 36.1333 38.7455 35.0299 38.3948C34.361 38.1826 33.5031 37.8992 32.4042 37.4246C28.0862 35.5601 25.1682 31.3751 24.6167 30.5841C24.578 30.5287 24.551 30.49 24.5359 30.4698L24.5322 30.4649C24.2885 30.1397 22.6552 27.9605 22.6552 25.7052C22.6552 23.5836 23.6974 22.4715 24.1771 21.9597C24.21 21.9246 24.2402 21.8923 24.2673 21.8628C24.6894 21.4016 25.1885 21.2864 25.4955 21.2864C25.8025 21.2864 26.1099 21.2892 26.3783 21.3027C26.4114 21.3043 26.4458 21.3041 26.4814 21.3039C26.7498 21.3024 27.0845 21.3004 27.4146 22.0933C27.5416 22.3985 27.7274 22.8509 27.9234 23.3281C28.3197 24.2929 28.7576 25.359 28.8347 25.5133C28.9498 25.7438 29.0266 26.0127 28.8731 26.3203C28.85 26.3664 28.8287 26.4099 28.8083 26.4514C28.693 26.6869 28.6082 26.86 28.4125 27.0886C28.3355 27.1784 28.256 27.2753 28.1764 27.3721C28.018 27.5651 27.8595 27.7581 27.7216 27.8955C27.491 28.1252 27.251 28.3744 27.5196 28.8355C27.7883 29.2966 28.7127 30.8049 30.0819 32.0262C31.5538 33.3391 32.8331 33.894 33.4815 34.1752C33.6082 34.2302 33.7107 34.2747 33.786 34.3123C34.2464 34.543 34.5151 34.5044 34.7838 34.1971C35.0525 33.8897 35.9352 32.8521 36.2422 32.391C36.5492 31.9301 36.8563 32.0069 37.2785 32.1605C37.7007 32.3144 39.9652 33.4285 40.4258 33.659C40.5157 33.7041 40.5998 33.7447 40.6777 33.7823Z" fill="#2B2A29"/>
</svg>
